<svg xmlns="http://www.w3.org/2000/svg" width="42.579" height="42.579" viewBox="0 0 42.579 42.579"><defs><style>.a{fill:#fff;}</style></defs><path class="a" d="M278.15,148.075A4.075,4.075,0,1,1,274.075,144a4.075,4.075,0,0,1,4.075,4.075Zm0,0" transform="translate(-252.785 -126.785)"/><path class="a" d="M218.036,75.3a4.048,4.048,0,0,0-2.32-2.32,6.764,6.764,0,0,0-2.27-.421c-1.289-.059-1.676-.072-4.94-.072s-3.651.012-4.94.071a6.769,6.769,0,0,0-2.27.421,4.05,4.05,0,0,0-2.32,2.32,6.767,6.767,0,0,0-.421,2.27c-.059,1.289-.072,1.676-.072,4.94s.013,3.651.072,4.94a6.765,6.765,0,0,0,.421,2.27,4.048,4.048,0,0,0,2.32,2.32,6.756,6.756,0,0,0,2.27.421c1.289.059,1.675.071,4.94.071s3.651-.012,4.94-.071a6.756,6.756,0,0,0,2.27-.421,4.048,4.048,0,0,0,2.32-2.32,6.77,6.77,0,0,0,.421-2.27c.059-1.289.071-1.676.071-4.94s-.012-3.651-.071-4.94a6.755,6.755,0,0,0-.421-2.27Zm-9.53,13.487a6.277,6.277,0,1,1,6.277-6.277,6.277,6.277,0,0,1-6.277,6.277Zm6.526-11.336a1.467,1.467,0,1,1,1.467-1.467,1.467,1.467,0,0,1-1.467,1.467Zm0,0" transform="translate(-187.217 -61.22)"/><path class="a" d="M84.29-63A21.292,21.292,0,0,0,63-41.71a21.292,21.292,0,0,0,21.29,21.29,21.292,21.292,0,0,0,21.29-21.29A21.292,21.292,0,0,0,84.29-63ZM96.441-36.67a8.969,8.969,0,0,1-.568,2.968A6.251,6.251,0,0,1,92.3-30.128a8.975,8.975,0,0,1-2.967.568c-1.3.059-1.72.074-5.04.074s-3.736-.014-5.04-.074a8.975,8.975,0,0,1-2.967-.568,5.988,5.988,0,0,1-2.165-1.41,5.99,5.99,0,0,1-1.41-2.165,8.967,8.967,0,0,1-.568-2.967c-.06-1.3-.074-1.72-.074-5.04s.014-3.736.074-5.04a8.97,8.97,0,0,1,.568-2.968,5.988,5.988,0,0,1,1.411-2.165,5.987,5.987,0,0,1,2.165-1.41,8.977,8.977,0,0,1,2.968-.568c1.3-.059,1.72-.074,5.04-.074s3.736.014,5.04.074a8.979,8.979,0,0,1,2.968.567,5.992,5.992,0,0,1,2.165,1.411,5.989,5.989,0,0,1,1.41,2.165,8.968,8.968,0,0,1,.568,2.968c.059,1.3.073,1.72.073,5.04s-.014,3.736-.074,5.04Zm0,0" transform="translate(-63 63)"/></svg>