<svg xmlns="http://www.w3.org/2000/svg" width="72.792" height="86.05" viewBox="0 0 72.792 86.05"><defs><style>.a{fill:#3a7f0d;}.b{fill:#49a010;}</style></defs><g transform="translate(-28.515 -16.975)"><path class="a" d="M31.334,45.17a16.814,16.814,0,0,1,18.822-7.54c6.173,1.556,9.638,7.606,8.986,14-.387,3.8-2.261,7.038-2.989,10.692a45.348,45.348,0,0,0-.945,10.108,43.627,43.627,0,0,0,.947,8.012,37.414,37.414,0,0,0,2.509,7.672c.343.752.688,1.506,1.017,2.263.071.163.136.328.2.5a.582.582,0,0,1,.056.456c-.059.119-.35-.011-.419-.043-.362-.169-.689-.4-1.047-.576s-.718-.38-1.075-.577q-1.938-1.073-3.822-2.237A79.374,79.374,0,0,1,39.409,77.014c-4.526-4.46-8.642-9.872-10.237-16.237A20.462,20.462,0,0,1,31.334,45.17Z"/><path class="b" d="M99.084,49.942a20.268,20.268,0,0,0-13.925-9.707,15.051,15.051,0,0,0,.446,7.188,7.064,7.064,0,0,0,2.834,3.689,5.637,5.637,0,0,1-4.593-3.186,10.365,10.365,0,0,1-2.536,6.267c1.057-3.353,1.01-6.743.886-10.2-.566,1.382-1.177,2.749-1.683,4.151s-.958,2.849-1.351,4.3c-.4,1.463-.694,2.951-1.11,4.418-1.041-4.124.339-8.025,1.832-11.915-.081-.042-.162-.084-.242-.127-.718.99-1.5,1.938-2.141,2.976a30.331,30.331,0,0,0-3.377,9.6c-.577,2.582-1.149,5.171-1.871,7.721a8.031,8.031,0,0,1-3.073,4.551,2.7,2.7,0,0,1,.145-.5,25.661,25.661,0,0,0,3.119-10.007c.306-2.329.608-4.664,1.052-6.976a16.879,16.879,0,0,1,2.077-5.442c.735-1.235,1.764-2.247,2.58-3.43a14.673,14.673,0,0,0,2.078-3.75,8.679,8.679,0,0,0-.223-5.268,10.407,10.407,0,0,0-1.183-2.406c-.073-.109-.168-.19-.244-.29A6.73,6.73,0,0,0,79.5,27a5.948,5.948,0,0,0-3.529-4.091c-5.711-2.684-4.1-5.938-4.1-5.938a3,3,0,0,1-.375.441,13.274,13.274,0,0,0-3.326,9.6,6.912,6.912,0,0,0,4.13,5.344,8.215,8.215,0,0,0,3.128.7,4.931,4.931,0,0,0,.882-.074c.064.135.116.245.131.283a8.375,8.375,0,0,1,.591,2.213A6.823,6.823,0,0,1,76.013,40.1c-.936,1.175-2.47,1.458-3.734,2.125a26.959,26.959,0,0,0-3.207,1.993,28.363,28.363,0,0,0-2.909,2.416,30.53,30.53,0,0,0-2.582,2.776,31.047,31.047,0,0,0-3.614,5.45c-3.988,7.712-4.455,16.788-2.637,25.168a53.089,53.089,0,0,0,1.954,7.036,75.675,75.675,0,0,0,6.258,13.61,14.441,14.441,0,0,0,1.18,1.708,1.7,1.7,0,0,0,.777.6c1.142.337,1.434-1.656,1.583-2.371.135-.646.189-1.314.349-1.955A27.045,27.045,0,0,1,81.494,82.588C99.829,70.961,104.749,60.228,99.084,49.942Z"/></g></svg>