<svg xmlns="http://www.w3.org/2000/svg" width="92" height="90.165" viewBox="0 0 92 90.165"><defs><style>.a{fill:#49a010;}</style></defs><g transform="translate(-914 -234.485)"><path class="a" d="M956.186,246.625a5.669,5.669,0,0,0-.647.591,5.5,5.5,0,0,0-.647-.591,4.622,4.622,0,0,0-2.889-1,5.146,5.146,0,0,0-5.083,5.423c0,3.174,2.425,5.24,5.781,8.1l.025.021c.543.463,1.159.988,1.794,1.543a1.545,1.545,0,0,0,2.038,0c.643-.563,1.266-1.093,1.82-1.566,3.356-2.86,5.781-4.926,5.781-8.1a5.146,5.146,0,0,0-5.083-5.423A4.626,4.626,0,0,0,956.186,246.625ZM952,247.781a2.485,2.485,0,0,1,1.573.547,4.011,4.011,0,0,1,1.02,1.235l.943,1.724.944-1.724a4,4,0,0,1,1.02-1.235,2.485,2.485,0,0,1,1.573-.547,3.013,3.013,0,0,1,2.931,3.271c0,2.18-1.892,3.793-5.027,6.464-.441.376-.929.792-1.44,1.236-.507-.439-.991-.852-1.428-1.224l-.015-.013c-3.134-2.671-5.025-4.282-5.025-6.463A3.013,3.013,0,0,1,952,247.781Z"/><path class="a" d="M991.286,283.524a1.426,1.426,0,1,0-2.852,0,1.607,1.607,0,1,1-3.214,0,1.426,1.426,0,1,0-2.852,0,4.459,4.459,0,1,0,8.918,0Z"/><path class="a" d="M1002.431,282.321l-3.761-1.205a1.483,1.483,0,0,1-.958-.97,24.33,24.33,0,0,0-3.568-7.058,25.944,25.944,0,0,0-2.35-2.777,33.239,33.239,0,0,0,.809-7.543c-.056-3.44-.752-5.463-2.128-6.183-.733-.384-2.962-1.554-14.925,3.922a4.477,4.477,0,0,0-.771.454c-.8-.213-1.609-.41-2.413-.585l-.171-.035-.023,0a18.225,18.225,0,0,0,1.6-6.7,1.426,1.426,0,1,0-2.85-.127,15.457,15.457,0,0,1-10.092,13.813,38.845,38.845,0,0,0-10.737,0A15.474,15.474,0,1,1,966.4,241.87a15.469,15.469,0,0,1,2.885,3.984,1.426,1.426,0,0,0,2.548-1.283,18.33,18.33,0,1,0-26.277,23.669c-.78.207-1.545.436-2.276.68a1.427,1.427,0,0,0-.9,1.8,1.424,1.424,0,0,0,1.8.9,35.773,35.773,0,0,1,22.545,0,1.426,1.426,0,0,0,.905-2.7c-.734-.245-1.5-.473-2.277-.68a18.29,18.29,0,0,0,5.367-5.29c.352.069.7.141,1.034.213.431.094.882.2,1.341.312-.008.03-.015.06-.021.091a16.022,16.022,0,0,0,.128,8.175,9.753,9.753,0,0,0,3.576,5.026,11.28,11.28,0,0,0,6.63,2.105,8.906,8.906,0,0,0,4.307-1c1.243-.7,2.3-2.173,3.128-4.365.347.411.68.834.991,1.259A21.507,21.507,0,0,1,994.992,281a4.343,4.343,0,0,0,2.808,2.831l3.761,1.2a2.279,2.279,0,0,1,1.588,2.176v6.236a2.276,2.276,0,0,1-1.588,2.175l-6.06,1.941a4.219,4.219,0,0,0-2.36,1.917,26.537,26.537,0,0,1-11.09,10.085,2.185,2.185,0,0,0-1.145,1.539l-1.941,10.276a.51.51,0,0,1-.5.416h-6.311a.51.51,0,0,1-.5-.415l-1.075-5.68a2.191,2.191,0,0,0-2.49-1.761,55.8,55.8,0,0,1-8.311.619,53.25,53.25,0,0,1-6.114-.346,2.207,2.207,0,0,0-2.414,1.771l-1.021,5.4a.512.512,0,0,1-.5.416h-6.31a.515.515,0,0,1-.5-.42l-1.868-9.706a2.189,2.189,0,0,0-1.125-1.521c-8.495-4.536-12.985-12.113-12.985-21.912a25.605,25.605,0,0,1,3.219-13.016,23.224,23.224,0,0,1,8.652-8.446,1.426,1.426,0,1,0-1.428-2.469,25.643,25.643,0,0,0-12.938,18.98l-.218-.02a6.732,6.732,0,0,0-.5-2.619,5.561,5.561,0,0,0-4.128-3.6,3.779,3.779,0,0,0-3.561,1.583,3.606,3.606,0,0,0-.678,3.933c.678,1.4,2.381,2.379,5.2,3.005-.057.08-.117.161-.181.241a6.453,6.453,0,0,1-4.925,2.608,1.489,1.489,0,0,0-.029,2.977c.1.005.2.007.3.007,1.751,0,4.365-.662,6.879-3.814a7.7,7.7,0,0,0,.96-1.536q.3.033.578.06c-.044.719-.066,1.433-.066,2.124a27.628,27.628,0,0,0,3.956,14.794,27.093,27.093,0,0,0,10.264,9.485l1.809,9.395a3.365,3.365,0,0,0,3.3,2.737h6.31a3.365,3.365,0,0,0,3.3-2.737l.908-4.8a56.419,56.419,0,0,0,5.839.3,58.882,58.882,0,0,0,8.115-.559l.958,5.06a3.365,3.365,0,0,0,3.3,2.737h6.31a3.365,3.365,0,0,0,3.3-2.738l1.882-9.963a29.207,29.207,0,0,0,11.96-11.039,1.378,1.378,0,0,1,.762-.629l6.06-1.94a5.122,5.122,0,0,0,3.569-4.892v-6.237A5.12,5.12,0,0,0,1002.431,282.321Zm-26.56-18.168a1.523,1.523,0,0,1,.867-1.053c6.532-2.99,10.452-4.056,11.942-4.056a1.421,1.421,0,0,1,.433.052c.408.479.944,3.1.438,7.418-.511,4.373-1.872,8.107-3.235,8.879-1.554.881-5.147,1.048-7.848-.927S974.866,268.922,975.871,264.153Zm-54.529,18.675c-1.908-.407-3.152-.954-3.42-1.506-.084-.174.06-.536.386-.967a1.007,1.007,0,0,1,.787-.486.793.793,0,0,1,.123.009,2.821,2.821,0,0,1,1.86,1.836A3.96,3.96,0,0,1,921.342,282.828Z"/></g></svg>