<svg xmlns="http://www.w3.org/2000/svg" width="310.869" height="310.869" viewBox="0 0 310.869 310.869"><defs><style>.a{fill:#f2f2f2;}.b{fill:#00263a;}</style></defs><g transform="translate(-532 -3851.747)"><circle class="a" cx="155.435" cy="155.435" r="155.435" transform="translate(532 3851.747)"/><g transform="translate(0 3470.09)"><path class="b" d="M721.586,486.076a7.21,7.21,0,0,0,0,10.2l16.675,16.675a7.213,7.213,0,0,0,10.2-10.2l-16.675-16.675a7.22,7.22,0,0,0-10.2,0ZM745.215,506a2.623,2.623,0,0,1-3.708,3.711L724.831,493.03a2.623,2.623,0,0,1,3.711-3.709Zm0,0"/><path class="b" d="M765.221,528.332a13.823,13.823,0,0,0-8.762-10.16c10.859-18.115,12.364-35.08,3.677-43.769-3.811-3.809-9.33-5.76-15.972-5.639a2.3,2.3,0,0,0,.041,4.59h.043c5.434-.1,9.693,1.346,12.643,4.3,4.56,4.56,4.683,11.49,3.983,16.5-.989,7.087-4.2,15.077-9.28,23.177q-19.855-.378-39.851-.523a234.676,234.676,0,0,0-1.449-23.558,2.3,2.3,0,0,0-2.035-2.025c-.686-.074-1.371-.139-2.055-.206,9.69-8.194,20.049-13.966,29.584-16.427a2.295,2.295,0,1,0-1.147-4.444,63.35,63.35,0,0,0-11.2,4.125c.737-3.208,1.089-7.054-.32-9.923a6.312,6.312,0,0,0-4.062-3.412c-2.679-.741-6.842-.352-11.468,5.726-.223.293-.44.59-.648.885-.024-.088-.05-.174-.077-.262-.908-3.025-3.285-8.1-8.993-8.1a6.418,6.418,0,0,0-5,2.286c-1.682,1.951-2.419,4.983-2.681,8-2.009-2.641-4.443-4.764-7.074-4.764a5.358,5.358,0,0,0-4.391,2.453c-2.954,4.166-3,13.2-.252,22.656-.687.008-1.374.024-2.061.038a53.494,53.494,0,0,0-12.312-10.3v-5.032a2.293,2.293,0,0,0,1.9-2.259v-6.48a6.339,6.339,0,0,0-6.333-6.333H645.4a6.34,6.34,0,0,0-6.334,6.333v6.48a2.293,2.293,0,0,0,1.9,2.259l0,5.03c-3.1,1.883-11.377,7.43-16.01,15.486a9.688,9.688,0,0,0-1.265,5.457,148.123,148.123,0,0,0,1.973,16.792l-2.819.049a13.81,13.81,0,0,0-13.187,11,27.552,27.552,0,0,0,0,11.034,13.779,13.779,0,0,0,8.481,10.06c.252,4.672.684,11.317,1.39,18.869q-2.84,8.049-5.55,16.092A9.88,9.88,0,0,0,618.8,596.3a24.991,24.991,0,0,0,5.118,1.913A25.161,25.161,0,0,0,647.628,615h79.613a25.16,25.16,0,0,0,23.714-16.788,24.932,24.932,0,0,0,5.12-1.914,9.873,9.873,0,0,0,4.825-11.915q-2.7-8.04-5.55-16.092c.708-7.55,1.139-14.2,1.391-18.867a13.775,13.775,0,0,0,8.48-10.056,27.562,27.562,0,0,0,0-11.036ZM705.93,495.6c.735,7.048,1.143,14.154,1.223,21.182q-25.538-.148-51.085.087c.076-7.056.486-14.191,1.222-21.269a245.213,245.213,0,0,1,48.64,0Zm-23.456-25.78c.168-.236.415-.517.646-.517,1.651,0,5.118,4.715,7.584,10.315a2.295,2.295,0,0,0,4.418-.871,2.35,2.35,0,0,0-.038-.417c-1.148-7.756.127-12.536,1.268-13.859a1.834,1.834,0,0,1,1.521-.692c5.292,0,5.469,10.529,5.47,10.631a2.3,2.3,0,0,0,4.395.927c1.641-3.711,6.264-11.035,10.094-9.974A1.728,1.728,0,0,1,719,466.368c.977,1.99.454,6.392-1.256,10.888a101.866,101.866,0,0,0-17.866,13.214q-8.285-.607-16.606-.663c-3.2-10.026-2.45-17.661-.8-19.991Zm-22.96,8.758H645.548l0-4.016h13.964ZM645.4,464.038h14.273a1.745,1.745,0,0,1,1.743,1.744v4.184h-17.76v-4.184a1.747,1.747,0,0,1,1.744-1.744Zm-15.214,52.475a142.682,142.682,0,0,1-1.918-16.3,5.117,5.117,0,0,1,.66-2.881c4.377-7.612,12.839-12.926,14.942-14.164H661.2a51.9,51.9,0,0,1,9.089,6.893q-7.68.348-15.323,1.163a2.3,2.3,0,0,0-2.035,2.027,234.993,234.993,0,0,0-1.451,23.663q-10.572.113-21.111.289a5.392,5.392,0,0,1-.185-.687Zm-7.4,33.847.057,0h.073q1.543.03,3.088.055-1.38,3.708-2.737,7.427c-.2-2.795-.36-5.319-.481-7.486Zm104.462,60.049H647.628a20.7,20.7,0,0,1-18.738-12.123,9.921,9.921,0,0,0,6.83-5.984c1.323-3.373,2.525-6.478,3.674-9.5a2.295,2.295,0,1,0-4.289-1.633c-1.145,3-2.342,6.1-3.658,9.453a5.256,5.256,0,0,1-6.038,3.231,20.37,20.37,0,0,1-4.543-1.651,5.266,5.266,0,0,1-2.545-6.357c5.884-17.512,12.3-35.149,19.079-52.419a5.26,5.26,0,0,1,6.033-3.235,20.362,20.362,0,0,1,4.549,1.657,5.257,5.257,0,0,1,2.544,6.355c-3.851,11.46-7.951,23.031-12.186,34.394a2.295,2.295,0,1,0,4.3,1.6c2.886-7.743,5.707-15.584,8.433-23.419,12.069.13,24.213.2,36.361.2s24.292-.069,36.363-.2c4.846,13.93,9.989,27.85,15.351,41.515a9.923,9.923,0,0,0,6.832,5.985,20.7,20.7,0,0,1-18.74,12.125ZM754.005,592.2a20.51,20.51,0,0,1-4.548,1.656,5.261,5.261,0,0,1-6.035-3.234c-6.761-17.23-13.18-34.867-19.079-52.419a5.257,5.257,0,0,1,2.544-6.355,20.384,20.384,0,0,1,4.548-1.654,4.994,4.994,0,0,1,1.146-.133,5.293,5.293,0,0,1,4.888,3.365c6.761,17.23,13.18,34.867,19.079,52.419a5.257,5.257,0,0,1-2.543,6.355Zm-5.131-41.781q1.542-.027,3.084-.055h.081c.018,0,.035,0,.053,0-.123,2.166-.281,4.689-.483,7.483q-1.355-3.719-2.735-7.424Zm11.847-11.963a9.166,9.166,0,0,1-6.756,7.049,8.929,8.929,0,0,1-2.017.267l-.076,0q-2.354.045-4.707.084-2.67-7.089-5.422-14.109a9.873,9.873,0,0,0-11.355-6.025,24.924,24.924,0,0,0-5.571,2.027,9.872,9.872,0,0,0-4.825,11.915q1.1,3.27,2.22,6.543c-23.1.239-46.461.239-69.558,0q1.124-3.273,2.223-6.54a9.87,9.87,0,0,0-4.823-11.914,25,25,0,0,0-5.573-2.031,9.877,9.877,0,0,0-11.356,6.028q-2.753,7.017-5.421,14.106-2.355-.04-4.71-.083h-.069a8.922,8.922,0,0,1-2.035-.273,9.165,9.165,0,0,1-6.744-7.046,23.04,23.04,0,0,1,0-9.211,9.189,9.189,0,0,1,8.776-7.318c42.807-.821,86.217-.821,129.025,0a9.186,9.186,0,0,1,8.774,7.319,22.967,22.967,0,0,1,0,9.211Zm0,0"/><path class="b" d="M657.094,558.839h-.154a9.671,9.671,0,0,0-9.658,9.446c-.186,6.224-.186,12.534,0,18.759a9.671,9.671,0,0,0,9.659,9.445h.153a9.67,9.67,0,0,0,9.658-9.445c.187-6.225.187-12.535,0-18.759a9.671,9.671,0,0,0-9.658-9.446Zm5.069,28.066a5.161,5.161,0,0,1-5.077,4.994h-.135a5.161,5.161,0,0,1-5.08-4.994c-.183-6.132-.183-12.35,0-18.483a5.161,5.161,0,0,1,5.081-4.992h.131a5.16,5.16,0,0,1,5.08,4.992c.185,6.133.185,12.351,0,18.483Zm0,0"/><path class="b" d="M687.511,558.839h-.154a9.668,9.668,0,0,0-9.656,9.446c-.187,6.224-.187,12.534,0,18.759a9.668,9.668,0,0,0,9.657,9.445h.153a9.668,9.668,0,0,0,9.657-9.445c.187-6.225.187-12.535,0-18.759a9.668,9.668,0,0,0-9.657-9.446Zm5.069,28.066A5.16,5.16,0,0,1,687.5,591.9h-.135a5.162,5.162,0,0,1-5.08-4.994c-.183-6.132-.183-12.35,0-18.483a5.161,5.161,0,0,1,5.081-4.992h.132a5.159,5.159,0,0,1,5.079,4.992c.184,6.133.184,12.351,0,18.483Zm0,0"/><path class="b" d="M717.929,558.839h-.154a9.67,9.67,0,0,0-9.658,9.446c-.186,6.224-.186,12.534,0,18.759a9.67,9.67,0,0,0,9.659,9.445h.153a9.671,9.671,0,0,0,9.658-9.445c.186-6.225.186-12.535,0-18.759a9.671,9.671,0,0,0-9.658-9.446ZM723,586.905a5.161,5.161,0,0,1-5.078,4.994h-.134a5.161,5.161,0,0,1-5.08-4.994c-.185-6.132-.185-12.35,0-18.483a5.161,5.161,0,0,1,5.082-4.992h.13a5.16,5.16,0,0,1,5.08,4.992c.183,6.133.183,12.351,0,18.483Zm0,0"/></g></g></svg>