<svg xmlns="http://www.w3.org/2000/svg" width="160" height="160" viewBox="0 0 160 160"><defs><style>.a{fill:#3a7f0d;}.b{fill:#fff;stroke:#fff;stroke-width:0.5px;}</style></defs><g transform="translate(-880.223 -296.91)"><circle class="a" cx="80" cy="80" r="80" transform="translate(880.223 296.91)"/><g transform="translate(17.252 925.798)"><path class="b" d="M919.206-476v1.4h0a21.724,21.724,0,0,1,5.3.669,13.042,13.042,0,0,1,8.017,5.9,16.271,16.271,0,0,1,2.227,10.2,31.6,31.6,0,0,1-1.947,7.323,43.6,43.6,0,0,0-1.788,5.98,58.232,58.232,0,0,0-1.214,13.009A56.358,56.358,0,0,0,931.02-421.2a48.5,48.5,0,0,0,3.247,9.926l.064.139.267.586c-1.549-.858-3.14-1.789-4.729-2.768a97.585,97.585,0,0,1-17.545-13.48c-6.736-6.638-10.821-13.1-12.488-19.747a24.32,24.32,0,0,1,2.553-18.54,19.887,19.887,0,0,1,8.123-7.491,19.172,19.172,0,0,1,8.693-2.028V-476m0,0a20.653,20.653,0,0,0-9.32,2.177,21.419,21.419,0,0,0-8.686,8.008,25.714,25.714,0,0,0-2.717,19.609c2,8,7.176,14.8,12.862,20.4a99.761,99.761,0,0,0,17.793,13.674q2.369,1.46,4.8,2.81c.449.248.89.5,1.351.725s.861.512,1.315.724a1.15,1.15,0,0,0,.4.116.134.134,0,0,0,.132-.062.731.731,0,0,0-.071-.572q-.114-.315-.247-.622c-.413-.951-.847-1.9-1.277-2.842a47,47,0,0,1-3.153-9.639,54.823,54.823,0,0,1-1.19-10.067,56.978,56.978,0,0,1,1.188-12.7c.914-4.59,3.269-8.666,3.755-13.434.82-8.036-3.534-15.639-11.291-17.594a23.084,23.084,0,0,0-5.641-.711Z" transform="translate(0 -101.386)"/><path class="b" d="M1091.337-598.77c.894,1.892,2.787,3.527,5.638,4.867a6.047,6.047,0,0,1,3.652,4.11,7.092,7.092,0,0,1-.923,4.745,1.4,1.4,0,0,0,.033,1.636c.083.109.163.2.222.261.016.017.032.034.048.053a11.64,11.64,0,0,1,1.316,2.684,9.544,9.544,0,0,1,.266,5.764,17.507,17.507,0,0,1-2.424,4.324c-.4.586-.857,1.141-1.337,1.728a22.129,22.129,0,0,0-1.955,2.66,22.526,22.526,0,0,0-2.78,7.289c-.544,2.832-.924,5.716-1.291,8.5l-.045.34c-.675,5.122-1.826,8.836-3.734,12.042a2.373,2.373,0,0,0-.262.705c-.018.075-.036.153-.063.245a1.4,1.4,0,0,0,.537,1.524,1.393,1.393,0,0,0,.8.255,1.393,1.393,0,0,0,.811-.26,11.425,11.425,0,0,0,4.392-6.472c.885-3.123,1.6-6.324,2.29-9.419l.08-.358a60.706,60.706,0,0,1,1.848-6.885,17.118,17.118,0,0,0,.372,6.256,1.4,1.4,0,0,0,1.332,1.054h.021a1.4,1.4,0,0,0,1.342-1.014c.291-1.024.537-2.058.775-3.057.2-.828.4-1.685.625-2.51.3-1.094.618-2.173.959-3.227a23.476,23.476,0,0,1-.938,4.643,1.4,1.4,0,0,0,.636,1.629,1.393,1.393,0,0,0,.695.185,1.394,1.394,0,0,0,1.033-.457,13.067,13.067,0,0,0,2.97-5.493,8.45,8.45,0,0,0,4.788,2.069,1.415,1.415,0,0,0,.166.01,1.4,1.4,0,0,0,1.3-.9,1.4,1.4,0,0,0-.515-1.642A7.472,7.472,0,0,1,1111-564.8a16.765,16.765,0,0,1-.7-6.9,23.8,23.8,0,0,1,15.086,11.176,18.449,18.449,0,0,1,.241,18.561c-3.458,6.664-10.815,13.6-21.867,20.6-8.059,5.111-13.657,12.581-15.763,21.036-.129.519-.207,1.026-.281,1.516-.053.348-.1.677-.169.992-.015.073-.032.157-.05.248a8.563,8.563,0,0,1-.387,1.469c-.027-.03-.057-.065-.089-.1a16.811,16.811,0,0,1-1.367-1.985,94.809,94.809,0,0,1-7.742-16.851,63.87,63.87,0,0,1-2.4-8.655c-2.417-11.138-1.284-22.035,3.189-30.684a37.7,37.7,0,0,1,4.379-6.6,37.394,37.394,0,0,1,3.126-3.362,34.377,34.377,0,0,1,3.512-2.917,32.513,32.513,0,0,1,3.863-2.4c.421-.223.889-.414,1.384-.616a8.551,8.551,0,0,0,3.748-2.419c1.482-1.861,1.788-4.739,1.58-6.811a11.99,11.99,0,0,0-.83-3.148c-.031-.079-.069-.161-.153-.337l-.05-.106a1.4,1.4,0,0,0-1.262-.8,1.4,1.4,0,0,0-.211.016,5.374,5.374,0,0,1-.789.079h-.067a8.9,8.9,0,0,1-3.387-.749,7.332,7.332,0,0,1-4.386-5.589,14.062,14.062,0,0,1,2.175-8.622m1.086-3.857a3.78,3.78,0,0,1-.471.555c-2.766,3.424-4.633,7.584-4.179,12.065a8.684,8.684,0,0,0,5.189,6.715,10.322,10.322,0,0,0,3.929.877l.109,0a6.634,6.634,0,0,0,1-.095c.08.169.146.308.165.356a10.533,10.533,0,0,1,.742,2.78c.184,1.835-.092,4.307-1.284,5.8-1.176,1.476-3.1,1.832-4.691,2.67a33.894,33.894,0,0,0-4.029,2.5,35.686,35.686,0,0,0-3.655,3.036,38.6,38.6,0,0,0-3.244,3.487,39.019,39.019,0,0,0-4.54,6.848c-5.011,9.689-5.6,21.092-3.313,31.621a66.584,66.584,0,0,0,2.456,8.841,95.052,95.052,0,0,0,7.862,17.1,18.243,18.243,0,0,0,1.483,2.147,2.143,2.143,0,0,0,.976.759,1.1,1.1,0,0,0,.312.048c1.178,0,1.5-2.2,1.677-3.027.169-.812.238-1.651.438-2.456,2.119-8.506,7.822-15.543,15.156-20.194,23.037-14.609,29.217-28.094,22.1-41.017-3.546-6.438-10.281-10.809-17.5-12.2a18.91,18.91,0,0,0,.561,9.031,8.875,8.875,0,0,0,3.56,4.635,7.085,7.085,0,0,1-5.771-4,13.027,13.027,0,0,1-3.185,7.874c1.328-4.213,1.269-8.473,1.112-12.812-.71,1.737-1.479,3.453-2.114,5.215s-1.2,3.58-1.7,5.4c-.5,1.839-.872,3.708-1.4,5.552-1.307-5.182.427-10.083,2.3-14.97l-.3-.159c-.9,1.243-1.884,2.434-2.689,3.738-2.3,3.72-3.31,7.875-4.243,12.057-.724,3.245-1.443,6.5-2.351,9.7a10.087,10.087,0,0,1-3.861,5.718,3.4,3.4,0,0,1,.182-.622,32.227,32.227,0,0,0,3.918-12.573c.385-2.926.764-5.859,1.322-8.764a21.209,21.209,0,0,1,2.609-6.838c.924-1.552,2.217-2.823,3.242-4.309a18.419,18.419,0,0,0,2.611-4.712,10.905,10.905,0,0,0-.281-6.619,13.03,13.03,0,0,0-1.486-3.022c-.092-.137-.211-.238-.307-.365a8.45,8.45,0,0,0,1.151-5.773,7.47,7.47,0,0,0-4.434-5.139c-7.176-3.372-5.146-7.46-5.145-7.461Z" transform="translate(-140.291 0)"/></g></g></svg>