<svg xmlns="http://www.w3.org/2000/svg" width="13.794" height="13.793" viewBox="0 0 13.794 13.793"><defs><style>.a{fill:#fff;}</style></defs><path class="a" d="M15.4,12.918l4.213,4.213a.7.7,0,0,1,0,.992l-1.486,1.486a.7.7,0,0,1-.992,0L12.917,15.4,8.7,19.609a.7.7,0,0,1-.991,0L6.225,18.122a.7.7,0,0,1,0-.992l4.213-4.213L6.225,8.7a.7.7,0,0,1,0-.992L7.713,6.226a.7.7,0,0,1,.991,0l4.213,4.213L17.13,6.226a.7.7,0,0,1,.992,0l1.486,1.487a.7.7,0,0,1,0,.992L15.4,12.918Z" transform="translate(-6.02 -6.021)"/></svg>