<svg xmlns="http://www.w3.org/2000/svg" width="310.869" height="310.869" viewBox="0 0 310.869 310.869"><defs><style>.a{fill:#f2f2f2;}.b{fill:#00263a;}</style></defs><g transform="translate(-1077.131 -3851.747)"><circle class="a" cx="155.435" cy="155.435" r="155.435" transform="translate(1077.131 3851.747)"/><g transform="translate(0 3470.09)"><path class="b" d="M1226.07,480.987a9.349,9.349,0,0,0-1.1,1.007,9.257,9.257,0,0,0-1.1-1.007,7.876,7.876,0,0,0-4.921-1.7c-4.936,0-8.658,3.971-8.658,9.236,0,5.406,4.13,8.925,9.847,13.8l.041.036c.925.788,1.974,1.682,3.056,2.628a2.636,2.636,0,0,0,3.471,0c1.1-.958,2.157-1.862,3.1-2.667,5.716-4.871,9.846-8.39,9.846-13.8,0-5.265-3.722-9.236-8.658-9.236A7.876,7.876,0,0,0,1226.07,480.987Zm-7.124,1.969a4.233,4.233,0,0,1,2.678.93,6.84,6.84,0,0,1,1.737,2.1l1.607,2.938,1.608-2.938a6.849,6.849,0,0,1,1.736-2.1,4.237,4.237,0,0,1,2.679-.93c2.893,0,4.993,2.342,4.993,5.57,0,3.714-3.223,6.46-8.561,11.01-.752.64-1.583,1.349-2.454,2.1-.863-.748-1.687-1.45-2.432-2.085l-.026-.022c-5.336-4.548-8.558-7.293-8.558-11.007C1213.953,485.3,1216.053,482.956,1218.946,482.956Z"/><path class="b" d="M1285.85,543.831a2.428,2.428,0,1,0-4.857,0,2.737,2.737,0,1,1-5.474,0,2.429,2.429,0,1,0-4.857,0,7.594,7.594,0,1,0,15.188,0Z"/><path class="b" d="M1304.831,541.782l-6.406-2.052a2.527,2.527,0,0,1-1.63-1.652,41.456,41.456,0,0,0-6.078-12.022,44.012,44.012,0,0,0-4-4.728,56.629,56.629,0,0,0,1.378-12.847c-.1-5.86-1.282-9.3-3.624-10.531-1.249-.655-5.047-2.647-25.42,6.679a7.579,7.579,0,0,0-1.313.774c-1.359-.364-2.741-.7-4.111-1-.1-.021-.194-.041-.291-.06l-.038-.008a31.028,31.028,0,0,0,2.72-11.408,2.428,2.428,0,1,0-4.852-.217,26.327,26.327,0,0,1-17.19,23.526,66.108,66.108,0,0,0-18.285,0,26.355,26.355,0,1,1,27.781-43.352,26.342,26.342,0,0,1,4.914,6.785,2.428,2.428,0,0,0,4.338-2.184,31.217,31.217,0,1,0-44.752,40.311c-1.329.353-2.631.742-3.877,1.158a2.428,2.428,0,0,0-.314,4.477,2.409,2.409,0,0,0,1.854.13,60.93,60.93,0,0,1,38.4,0,2.429,2.429,0,0,0,1.54-4.607c-1.25-.417-2.552-.807-3.878-1.158a31.182,31.182,0,0,0,9.141-9.009c.6.117,1.191.239,1.761.362.735.16,1.5.338,2.284.531-.013.051-.025.1-.036.155-1.116,5.294-1.042,9.978.218,13.923a16.622,16.622,0,0,0,6.09,8.561,19.222,19.222,0,0,0,11.293,3.585,15.171,15.171,0,0,0,7.335-1.7c2.117-1.2,3.909-3.7,5.327-7.434.592.7,1.159,1.421,1.688,2.145a36.612,36.612,0,0,1,5.367,10.615,7.391,7.391,0,0,0,4.782,4.821l6.406,2.052a3.879,3.879,0,0,1,2.7,3.7v10.621a3.879,3.879,0,0,1-2.7,3.705l-10.321,3.306a7.187,7.187,0,0,0-4.02,3.265c-4.04,6.982-10.394,12.761-18.887,17.176a3.72,3.72,0,0,0-1.95,2.621l-3.306,17.5a.87.87,0,0,1-.854.708h-10.748a.871.871,0,0,1-.854-.708l-1.831-9.673a3.729,3.729,0,0,0-4.239-3,94.951,94.951,0,0,1-14.155,1.053,90.7,90.7,0,0,1-10.414-.588,3.758,3.758,0,0,0-4.111,3.016l-1.74,9.191a.87.87,0,0,1-.854.708h-10.748a.874.874,0,0,1-.855-.716l-3.183-16.531a3.725,3.725,0,0,0-1.915-2.59c-14.468-7.725-22.116-20.629-22.116-37.32,0-8.435,1.845-15.893,5.482-22.166a39.556,39.556,0,0,1,14.737-14.386,2.429,2.429,0,0,0-2.432-4.2A43.675,43.675,0,0,0,1172,543.429l-.371-.034a11.487,11.487,0,0,0-.848-4.46c-1.34-3.333-4.1-5.739-7.031-6.13a6.443,6.443,0,0,0-6.066,2.7c-2.217,2.931-1.851,5.26-1.153,6.7,1.154,2.377,4.054,4.052,8.865,5.117-.1.137-.2.274-.309.41a10.994,10.994,0,0,1-8.389,4.443,2.537,2.537,0,0,0-.048,5.071c.165.008.339.011.519.011,2.982,0,7.435-1.127,11.716-6.5a13.18,13.18,0,0,0,1.635-2.615q.508.055.984.1c-.074,1.226-.112,2.442-.112,3.617a47.052,47.052,0,0,0,6.738,25.2,46.151,46.151,0,0,0,17.481,16.155l3.08,16a5.733,5.733,0,0,0,5.627,4.662h10.748a5.733,5.733,0,0,0,5.627-4.662l1.547-8.172a96.127,96.127,0,0,0,9.944.507,100.145,100.145,0,0,0,13.822-.953l1.631,8.618a5.731,5.731,0,0,0,5.627,4.662h10.747a5.732,5.732,0,0,0,5.627-4.663l3.205-16.968c9.085-4.817,15.938-11.142,20.37-18.8a2.333,2.333,0,0,1,1.3-1.071l10.32-3.306a8.721,8.721,0,0,0,6.079-8.331V550.112A8.72,8.72,0,0,0,1304.831,541.782ZM1259.6,510.84a2.591,2.591,0,0,1,1.476-1.794c11.126-5.093,17.8-6.908,20.34-6.908a2.446,2.446,0,0,1,.737.088c.695.816,1.607,5.276.747,12.635-.871,7.447-3.188,13.806-5.511,15.121-2.647,1.5-8.765,1.786-13.365-1.579S1257.885,518.961,1259.6,510.84Zm-92.87,31.806c-3.251-.693-5.369-1.625-5.825-2.566-.144-.3.1-.912.657-1.646a1.715,1.715,0,0,1,1.341-.829,1.527,1.527,0,0,1,.209.015,4.808,4.808,0,0,1,3.167,3.127A6.736,6.736,0,0,1,1166.726,542.646Z"/></g></g></svg>