<svg xmlns="http://www.w3.org/2000/svg" width="90.505" height="90" viewBox="0 0 90.505 90"><defs><style>.a{fill:#49a010;}</style></defs><g transform="translate(-914.747 -234.567)"><path class="a" d="M979.726,250.1a4.164,4.164,0,0,0,0,5.892l9.632,9.632a4.166,4.166,0,0,0,5.892-5.892l-9.632-9.632a4.171,4.171,0,0,0-5.892,0Zm13.649,11.506a1.516,1.516,0,0,1-2.143,2.144l-9.632-9.633a1.516,1.516,0,0,1,2.144-2.143Zm0,0"/><path class="a" d="M1004.93,274.507a7.983,7.983,0,0,0-5.061-5.868c6.272-10.463,7.142-20.263,2.124-25.281-2.2-2.2-5.389-3.327-9.226-3.257a1.326,1.326,0,0,0,.024,2.651h.025c3.139-.058,5.6.777,7.3,2.481,2.634,2.634,2.7,6.637,2.3,9.531a35.214,35.214,0,0,1-5.36,13.387q-11.469-.217-23.018-.3a135.711,135.711,0,0,0-.837-13.607,1.326,1.326,0,0,0-1.176-1.17c-.4-.043-.791-.08-1.186-.119,5.6-4.733,11.58-8.067,17.087-9.488a1.325,1.325,0,1,0-.662-2.567,36.521,36.521,0,0,0-6.469,2.383c.425-1.854.628-4.075-.185-5.732a3.646,3.646,0,0,0-2.346-1.971c-1.548-.428-3.953-.2-6.624,3.307-.129.17-.255.341-.375.511-.014-.05-.028-.1-.044-.151-.525-1.747-1.9-4.678-5.2-4.678a3.707,3.707,0,0,0-2.887,1.321,8.306,8.306,0,0,0-1.548,4.622c-1.16-1.525-2.566-2.752-4.086-2.752a3.1,3.1,0,0,0-2.537,1.417c-1.706,2.407-1.73,7.622-.145,13.087-.4,0-.794.013-1.191.022a30.917,30.917,0,0,0-7.111-5.952v-2.906a1.325,1.325,0,0,0,1.1-1.3v-3.743a3.662,3.662,0,0,0-3.658-3.658h-8.244a3.662,3.662,0,0,0-3.659,3.658v3.743a1.325,1.325,0,0,0,1.1,1.3l0,2.906c-1.79,1.087-6.572,4.291-9.248,8.944a5.6,5.6,0,0,0-.73,3.152,85.34,85.34,0,0,0,1.139,9.7l-1.628.029a7.977,7.977,0,0,0-7.617,6.351,15.909,15.909,0,0,0,0,6.374,7.96,7.96,0,0,0,4.9,5.811c.145,2.7.4,6.536.8,10.9q-1.641,4.65-3.206,9.3a5.706,5.706,0,0,0,2.788,6.882,14.456,14.456,0,0,0,2.956,1.105,14.531,14.531,0,0,0,13.7,9.695h45.986a14.53,14.53,0,0,0,13.7-9.7,14.447,14.447,0,0,0,2.957-1.106,5.7,5.7,0,0,0,2.787-6.882q-1.56-4.644-3.206-9.295c.409-4.361.659-8.2.8-10.9a7.958,7.958,0,0,0,4.9-5.809,15.914,15.914,0,0,0,0-6.375ZM970.683,255.6c.425,4.071.66,8.175.706,12.235q-14.749-.086-29.507.05c.044-4.075.281-8.2.707-12.285a141.644,141.644,0,0,1,28.094,0Zm-13.548-14.891c.1-.136.239-.3.373-.3.954,0,2.956,2.723,4.38,5.958a1.326,1.326,0,0,0,2.53-.744c-.663-4.48.074-7.241.733-8a1.059,1.059,0,0,1,.878-.4c3.057,0,3.159,6.082,3.16,6.141a1.325,1.325,0,0,0,2.538.535c.949-2.144,3.618-6.374,5.831-5.761a1,1,0,0,1,.674.583c.564,1.149.262,3.692-.726,6.289a58.832,58.832,0,0,0-10.319,7.632q-4.785-.351-9.592-.383c-1.848-5.791-1.415-10.2-.46-11.547Zm-13.262,5.059h-8.067v-2.32h8.066Zm-8.155-8.4h8.244a1.008,1.008,0,0,1,1.006,1.007v2.417H934.71v-2.417a1.009,1.009,0,0,1,1.008-1.007Zm-8.788,30.31a82.667,82.667,0,0,1-1.108-9.417,2.962,2.962,0,0,1,.381-1.664c2.529-4.4,7.416-7.466,8.631-8.181h10.011a29.921,29.921,0,0,1,5.25,3.982q-4.435.2-8.851.671a1.325,1.325,0,0,0-1.175,1.171,135.749,135.749,0,0,0-.838,13.668q-6.107.064-12.194.167a3.019,3.019,0,0,1-.107-.4Zm-4.276,19.55.034,0h.042l1.783.031q-.8,2.142-1.58,4.29c-.118-1.614-.209-3.072-.279-4.324Zm60.339,34.685H937.007a11.957,11.957,0,0,1-10.823-7,5.728,5.728,0,0,0,3.945-3.456c.764-1.948,1.459-3.741,2.122-5.485a1.325,1.325,0,1,0-2.477-.944c-.661,1.735-1.352,3.521-2.113,5.461a3.036,3.036,0,0,1-3.488,1.866,11.763,11.763,0,0,1-2.623-.954,3.043,3.043,0,0,1-1.471-3.672c3.4-10.115,7.107-20.3,11.021-30.277a3.037,3.037,0,0,1,3.484-1.869,11.719,11.719,0,0,1,2.628.957,3.036,3.036,0,0,1,1.469,3.671c-2.224,6.619-4.592,13.3-7.038,19.866a1.325,1.325,0,1,0,2.484.926c1.667-4.472,3.3-9,4.871-13.527,6.971.075,13.986.115,21,.115s14.032-.04,21-.115c2.8,8.046,5.77,16.087,8.867,23.979a5.728,5.728,0,0,0,3.946,3.457,11.957,11.957,0,0,1-10.824,7ZM998.451,311.4a11.838,11.838,0,0,1-2.626.957,3.039,3.039,0,0,1-3.486-1.868c-3.9-9.953-7.613-20.14-11.02-30.278a3.037,3.037,0,0,1,1.469-3.671,11.784,11.784,0,0,1,2.627-.955,2.889,2.889,0,0,1,.662-.077,3.057,3.057,0,0,1,2.823,1.944c3.906,9.952,7.613,20.139,11.021,30.277a3.037,3.037,0,0,1-1.47,3.671Zm-2.963-24.133,1.781-.031h.047l.03,0c-.07,1.251-.161,2.709-.279,4.322q-.781-2.146-1.579-4.288Zm6.843-6.909a5.3,5.3,0,0,1-3.9,4.071,5.133,5.133,0,0,1-1.164.154h-.045q-1.359.027-2.718.049-1.543-4.1-3.132-8.15A5.7,5.7,0,0,0,984.81,273a14.452,14.452,0,0,0-3.218,1.171,5.7,5.7,0,0,0-2.787,6.882q.635,1.89,1.283,3.78c-13.341.138-26.836.138-40.178,0q.65-1.892,1.285-3.778a5.7,5.7,0,0,0-2.786-6.882A14.519,14.519,0,0,0,935.19,273a5.707,5.707,0,0,0-6.56,3.482q-1.589,4.053-3.131,8.148l-2.72-.048h-.04a5.165,5.165,0,0,1-1.176-.157,5.3,5.3,0,0,1-3.895-4.07,13.314,13.314,0,0,1,0-5.321,5.308,5.308,0,0,1,5.069-4.227c24.726-.474,49.8-.474,74.526,0a5.307,5.307,0,0,1,5.068,4.228,13.279,13.279,0,0,1,0,5.321Zm0,0"/><path class="a" d="M942.475,292.129h-.089a5.586,5.586,0,0,0-5.578,5.456c-.108,3.6-.108,7.24,0,10.835a5.587,5.587,0,0,0,5.579,5.456h.088a5.585,5.585,0,0,0,5.578-5.456c.108-3.6.108-7.24,0-10.835a5.584,5.584,0,0,0-5.578-5.456ZM945.4,308.34a2.981,2.981,0,0,1-2.932,2.884h-.079a2.981,2.981,0,0,1-2.934-2.884c-.1-3.542-.1-7.134,0-10.676a2.982,2.982,0,0,1,2.935-2.884h.076a2.982,2.982,0,0,1,2.934,2.884c.107,3.542.107,7.134,0,10.676Zm0,0"/><path class="a" d="M960.044,292.129h-.089a5.584,5.584,0,0,0-5.577,5.456c-.108,3.6-.108,7.24,0,10.835a5.585,5.585,0,0,0,5.578,5.456h.088a5.585,5.585,0,0,0,5.578-5.456c.108-3.6.108-7.24,0-10.835a5.584,5.584,0,0,0-5.578-5.456Zm2.928,16.211a2.98,2.98,0,0,1-2.932,2.884h-.079a2.982,2.982,0,0,1-2.934-2.884c-.106-3.542-.106-7.134,0-10.676a2.983,2.983,0,0,1,2.935-2.884h.077a2.981,2.981,0,0,1,2.933,2.884c.107,3.542.107,7.134,0,10.676Zm0,0"/><path class="a" d="M977.614,292.129h-.089a5.584,5.584,0,0,0-5.578,5.456c-.108,3.6-.108,7.24,0,10.835a5.585,5.585,0,0,0,5.579,5.456h.088a5.586,5.586,0,0,0,5.578-5.456c.108-3.6.108-7.24,0-10.835a5.586,5.586,0,0,0-5.578-5.456Zm2.928,16.211a2.981,2.981,0,0,1-2.933,2.884h-.078a2.981,2.981,0,0,1-2.934-2.884c-.107-3.542-.107-7.134,0-10.676a2.982,2.982,0,0,1,2.935-2.884h.076a2.982,2.982,0,0,1,2.934,2.884c.1,3.542.1,7.134,0,10.676Zm0,0"/></g></svg>