<svg xmlns="http://www.w3.org/2000/svg" width="24.452" height="26.048" viewBox="0 0 24.452 26.048"><defs><style>.a{fill:#00263a;}</style></defs><path class="a" d="M7.662,26.368a6.35,6.35,0,0,1-4.49-1.914A6.527,6.527,0,0,1,3.45,15L16.4,1.88A4.656,4.656,0,0,1,20.987.471a4.74,4.74,0,0,1,3.28,3.32,4.8,4.8,0,0,1-1.39,4.642L10.487,20.979A3.88,3.88,0,0,1,8.177,22.2a2.526,2.526,0,0,1-2.087-.711c-.962-.978-1.1-2.813.5-4.435l8.7-8.811a.908.908,0,0,1,1.294,0,.936.936,0,0,1,0,1.311l-8.7,8.813c-.753.76-.821,1.487-.5,1.812a.712.712,0,0,0,.6.178,2.147,2.147,0,0,0,1.208-.693L21.583,7.125A2.935,2.935,0,0,0,22.5,4.274a2.746,2.746,0,0,0-4.8-1.081C14,6.938,6.593,14.439,4.743,16.31a4.669,4.669,0,0,0-.277,6.835c1.559,1.577,4.335,2.165,6.75-.282L24.17,9.747a.908.908,0,0,1,1.294,0,.937.937,0,0,1,0,1.312L12.509,24.176a6.78,6.78,0,0,1-4.848,2.193Z" transform="translate(-1.28 -0.32)"/></svg>