<svg xmlns="http://www.w3.org/2000/svg" width="373.364" height="162.584" viewBox="0 0 373.364 162.584"><defs><style>.a{fill:#fff;}</style></defs><g transform="translate(-761 -278.119)"><g transform="translate(761 278.119)"><path class="a" d="M766.327,333.9a31.768,31.768,0,0,1,35.561-14.246c11.664,2.94,18.211,14.373,16.98,26.457-.732,7.17-4.272,13.3-5.647,20.2a85.709,85.709,0,0,0-1.786,19.1,82.521,82.521,0,0,0,1.79,15.14,70.711,70.711,0,0,0,4.741,14.5c.647,1.419,1.3,2.844,1.92,4.274q.2.463.372.936a1.1,1.1,0,0,1,.106.861c-.112.225-.661-.021-.793-.082-.682-.318-1.3-.755-1.977-1.088-.694-.342-1.356-.717-2.032-1.09q-3.661-2.026-7.221-4.226a150.03,150.03,0,0,1-26.757-20.564c-8.551-8.426-16.327-18.652-19.342-30.679A38.671,38.671,0,0,1,766.327,333.9Z" transform="translate(-761 -280.623)"/><path class="a" d="M897.8,340.408c-5.332-9.682-15.461-16.254-26.31-18.34a28.431,28.431,0,0,0,.843,13.581,13.353,13.353,0,0,0,5.353,6.97,10.653,10.653,0,0,1-8.677-6.021c-.47,4.691-1.816,8.569-4.791,11.842,2-6.336,1.908-12.741,1.674-19.267-1.068,2.612-2.224,5.193-3.179,7.843-.962,2.668-1.811,5.383-2.553,8.115-.751,2.766-1.311,5.576-2.1,8.349-1.965-7.793.642-15.163,3.462-22.513l-.457-.239c-1.356,1.869-2.833,3.66-4.044,5.622-3.455,5.593-4.978,11.842-6.381,18.132-1.09,4.88-2.171,9.771-3.536,14.588a15.165,15.165,0,0,1-5.806,8.6,5.093,5.093,0,0,1,.275-.935c3.494-5.872,5.02-12.288,5.891-18.907.58-4.4,1.15-8.812,1.989-13.179a31.921,31.921,0,0,1,3.923-10.283c1.389-2.333,3.334-4.246,4.876-6.48a27.709,27.709,0,0,0,3.926-7.085,16.4,16.4,0,0,0-.422-9.953,19.643,19.643,0,0,0-2.235-4.545c-.138-.206-.318-.358-.462-.549a12.71,12.71,0,0,0,1.732-8.682c-.6-3.539-3.527-6.252-6.667-7.728-10.792-5.07-7.738-11.219-7.737-11.221a5.719,5.719,0,0,1-.707.835c-4.16,5.148-6.968,11.405-6.285,18.143.456,4.5,3.774,8.237,7.8,10.1a15.549,15.549,0,0,0,5.909,1.319,9.308,9.308,0,0,0,1.667-.141c.119.255.219.462.248.535a15.825,15.825,0,0,1,1.116,4.181c.277,2.76-.139,6.477-1.931,8.725-1.768,2.22-4.666,2.755-7.055,4.015a51.085,51.085,0,0,0-6.059,3.765,53.851,53.851,0,0,0-5.5,4.566A59.633,59.633,0,0,0,823.891,349.7c-7.536,14.57-8.419,31.717-4.983,47.551a100.088,100.088,0,0,0,3.693,13.295c3.266,8.876,6.861,17.631,11.823,25.713a27.483,27.483,0,0,0,2.23,3.228,3.219,3.219,0,0,0,1.468,1.142c2.158.635,2.709-3.13,2.991-4.479.254-1.222.357-2.484.659-3.694,3.187-12.792,11.763-23.374,22.792-30.368C899.207,380.121,908.5,359.843,897.8,340.408Z" transform="translate(-764.466 -278.119)"/></g><g transform="translate(921.351 353.812)"><path class="a" d="M946.273,365.946a16.846,16.846,0,0,0-1.86-.961,17.19,17.19,0,0,0-1.816-.674,6.541,6.541,0,0,0-1.964-.315,2.732,2.732,0,0,0-1.246.24.837.837,0,0,0-.465.81.935.935,0,0,0,.27.691,2.551,2.551,0,0,0,.78.494,9.5,9.5,0,0,0,1.245.434q.734.211,1.665.51a21.9,21.9,0,0,1,2.655.99,8.234,8.234,0,0,1,2.025,1.276,4.907,4.907,0,0,1,1.29,1.785,6.464,6.464,0,0,1,.45,2.55A6.715,6.715,0,0,1,948.6,377a5.788,5.788,0,0,1-1.859,2.085,7.874,7.874,0,0,1-2.611,1.126,12.652,12.652,0,0,1-2.926.344,16.676,16.676,0,0,1-2.4-.179,21.338,21.338,0,0,1-4.784-1.291,14.857,14.857,0,0,1-2.086-1.021l2.521-5.13a17.727,17.727,0,0,0,2.19,1.17,15.606,15.606,0,0,0,2.175.811,8.661,8.661,0,0,0,2.475.36,2.523,2.523,0,0,0,1.336-.255.78.78,0,0,0,.374-.675.964.964,0,0,0-.374-.766,3.449,3.449,0,0,0-1.036-.554q-.66-.239-1.515-.48t-1.815-.57a15.645,15.645,0,0,1-2.431-1.034,6.557,6.557,0,0,1-1.679-1.262,4.491,4.491,0,0,1-.976-1.6,6.252,6.252,0,0,1-.315-2.07,7.135,7.135,0,0,1,.646-3.12,6.4,6.4,0,0,1,1.754-2.25,7.809,7.809,0,0,1,2.536-1.365,9.636,9.636,0,0,1,3.015-.465,11.458,11.458,0,0,1,2.28.224,18.278,18.278,0,0,1,2.145.57,20.62,20.62,0,0,1,1.935.75q.9.405,1.62.766Z" transform="translate(-931.931 -358.806)"/><path class="a" d="M971.579,375.2v5.1H956.4V359h14.911v5.1h-9.061v3h7.741v4.74h-7.741V375.2Z" transform="translate(-933.445 -358.818)"/><path class="a" d="M994.8,380.3v-11.22l-3.569,7.889h-3.121l-3.57-7.889V380.3h-5.85V359h6.391l4.59,10.021L994.289,359h6.36v21.3Z" transform="translate(-934.825 -358.818)"/><path class="a" d="M1027.319,374.838a4.649,4.649,0,0,1-2.25,4.171,7.761,7.761,0,0,1-2.446.976,13.383,13.383,0,0,1-2.955.314H1009.2V359h12.36a4.208,4.208,0,0,1,2.011.48,5.021,5.021,0,0,1,1.529,1.245,5.7,5.7,0,0,1,.976,1.741,5.938,5.938,0,0,1,.345,1.994,5.771,5.771,0,0,1-.766,2.865,4.8,4.8,0,0,1-2.295,2.055,5.188,5.188,0,0,1,3.96,5.46Zm-12.271-10.859v3.269h3.991a1.923,1.923,0,0,0,1.1-.33,1.486,1.486,0,0,0,.5-1.319,1.6,1.6,0,0,0-.42-1.246,1.435,1.435,0,0,0-.99-.374Zm6.331,9.66a2.027,2.027,0,0,0-.42-1.3,1.325,1.325,0,0,0-1.08-.524h-4.831v3.57h4.621a1.741,1.741,0,0,0,1.215-.45A1.655,1.655,0,0,0,1021.379,373.638Z" transform="translate(-936.714 -358.818)"/><path class="a" d="M1034.464,380.3V359h9.781a6.474,6.474,0,0,1,2.88.644,7.494,7.494,0,0,1,2.266,1.681,7.855,7.855,0,0,1,1.485,2.37,7.106,7.106,0,0,1,.54,2.686,7.585,7.585,0,0,1-.811,3.464,7.056,7.056,0,0,1-2.25,2.627l4.5,7.829h-6.6l-3.75-6.54h-2.191v6.54Zm5.85-11.64H1044a1.3,1.3,0,0,0,1.006-.6,2.7,2.7,0,0,0,.465-1.68,2.414,2.414,0,0,0-.541-1.7,1.513,1.513,0,0,0-1.08-.585h-3.54Z" transform="translate(-938.278 -358.818)"/><path class="a" d="M1064.645,359h5.341l7.38,21.3h-5.94l-1.29-4.17h-5.67l-1.262,4.17h-5.969Zm4.561,13.231-1.891-6.6-1.98,6.6Z" transform="translate(-939.687 -358.818)"/><path class="a" d="M1089.628,369.828V380.3h-5.85V359h4.561l8.551,10.831V359h5.85v21.3h-4.65Z" transform="translate(-941.33 -358.818)"/><path class="a" d="M1111.091,380.3V359h8.191a12.007,12.007,0,0,1,4.651.841,9.359,9.359,0,0,1,5.4,5.656,12.2,12.2,0,0,1,.69,4.125,12.024,12.024,0,0,1-.765,4.395,9.513,9.513,0,0,1-2.176,3.36,9.715,9.715,0,0,1-3.39,2.159,12.136,12.136,0,0,1-4.41.766Zm12.992-10.68a7.284,7.284,0,0,0-.331-2.25,5.033,5.033,0,0,0-.945-1.741,4.265,4.265,0,0,0-1.515-1.125,4.862,4.862,0,0,0-2.01-.405h-2.341v11.1h2.341a4.773,4.773,0,0,0,2.041-.419,4.277,4.277,0,0,0,1.514-1.17,5.186,5.186,0,0,0,.93-1.77A7.464,7.464,0,0,0,1124.083,369.618Z" transform="translate(-943.021 -358.818)"/><path class="a" d="M1146.711,380.471a10.244,10.244,0,0,1-4.41-.93,10.908,10.908,0,0,1-3.389-2.445,11.041,11.041,0,0,1-2.19-3.466,10.7,10.7,0,0,1-.781-4.02,10.47,10.47,0,0,1,.81-4.051,10.759,10.759,0,0,1,2.266-3.435,11.034,11.034,0,0,1,3.449-2.37,10.658,10.658,0,0,1,4.366-.885,10.24,10.24,0,0,1,4.409.93,10.791,10.791,0,0,1,3.391,2.461,11.045,11.045,0,0,1,2.174,3.48,10.825,10.825,0,0,1,.766,3.989,10.35,10.35,0,0,1-.811,4.037,10.925,10.925,0,0,1-2.25,3.419,11.062,11.062,0,0,1-3.435,2.386A10.492,10.492,0,0,1,1146.711,380.471Zm-4.829-10.8a7.254,7.254,0,0,0,.3,2.084,5.424,5.424,0,0,0,.9,1.785,4.517,4.517,0,0,0,1.515,1.261,5.124,5.124,0,0,0,4.366-.016,4.453,4.453,0,0,0,1.515-1.289,5.553,5.553,0,0,0,.869-1.815,7.641,7.641,0,0,0,.286-2.07,7.26,7.26,0,0,0-.3-2.085,5.174,5.174,0,0,0-.915-1.77,4.618,4.618,0,0,0-1.531-1.23,5.173,5.173,0,0,0-4.321.015,4.479,4.479,0,0,0-1.515,1.275,5.419,5.419,0,0,0-.885,1.8A7.475,7.475,0,0,0,1141.882,369.67Z" transform="translate(-944.559 -358.81)"/><g transform="translate(0 30.522)"><path class="a" d="M931.931,401.008a10.37,10.37,0,0,1,.692-3.811,9.171,9.171,0,0,1,4.834-5.107,8.662,8.662,0,0,1,3.592-.748,8.25,8.25,0,0,1,4.287,1.113,7.037,7.037,0,0,1,2.827,3.118l-.731.255a6.957,6.957,0,0,0-2.68-2.752,7.459,7.459,0,0,0-3.811-1,7.623,7.623,0,0,0-3.246.693,8.421,8.421,0,0,0-2.628,1.9,8.749,8.749,0,0,0-1.769,2.845,9.9,9.9,0,0,0,.018,7.04,9.349,9.349,0,0,0,1.807,2.935,8.732,8.732,0,0,0,2.645,1.99,7.212,7.212,0,0,0,3.209.728,7.741,7.741,0,0,0,2.206-.327,9.015,9.015,0,0,0,2.042-.876,6.615,6.615,0,0,0,1.588-1.276,3.826,3.826,0,0,0,.874-1.5l.731.22a5.41,5.41,0,0,1-1.04,1.769,7.212,7.212,0,0,1-1.7,1.422,8.96,8.96,0,0,1-2.172.948,8.606,8.606,0,0,1-2.425.347,8.249,8.249,0,0,1-3.539-.785,9.214,9.214,0,0,1-2.917-2.133,10.322,10.322,0,0,1-1.97-3.155A10.163,10.163,0,0,1,931.931,401.008Z" transform="translate(-931.931 -391.342)"/><path class="a" d="M962.638,410.93a8.021,8.021,0,0,1-3.5-.785,9.272,9.272,0,0,1-2.862-2.115,10.225,10.225,0,0,1,.019-13.768,9.331,9.331,0,0,1,2.881-2.134,8.037,8.037,0,0,1,6.93,0,9.125,9.125,0,0,1,2.865,2.134,10.664,10.664,0,0,1,1.951,3.118,9.814,9.814,0,0,1,.729,3.774A10.239,10.239,0,0,1,969,408.03a9.287,9.287,0,0,1-2.863,2.115A8.014,8.014,0,0,1,962.638,410.93Zm-8.28-9.7a9.228,9.228,0,0,0,.656,3.464,9.35,9.35,0,0,0,1.769,2.863,8.314,8.314,0,0,0,2.609,1.934,7.392,7.392,0,0,0,3.209.71,7.254,7.254,0,0,0,3.192-.728,8.847,8.847,0,0,0,2.662-1.97,9.233,9.233,0,0,0,1.8-2.882,9.339,9.339,0,0,0,.658-3.5,9.236,9.236,0,0,0-.658-3.465,9.41,9.41,0,0,0-1.787-2.881,8.6,8.6,0,0,0-2.644-1.971,7.353,7.353,0,0,0-6.384,0,8.465,8.465,0,0,0-2.644,1.989,9.64,9.64,0,0,0-1.788,2.918A9.48,9.48,0,0,0,954.359,401.228Z" transform="translate(-933.274 -391.342)"/><path class="a" d="M993.563,410.566h-.73V400.024q0-4.158-1.149-6.055a4,4,0,0,0-3.7-1.9,7.8,7.8,0,0,0-2.718.492,9.235,9.235,0,0,0-2.462,1.367,9.534,9.534,0,0,0-1.971,2.08,8.783,8.783,0,0,0-1.239,2.59v11.965h-.73V391.634h.73v4.888a9.187,9.187,0,0,1,1.5-2.1,9.917,9.917,0,0,1,2.006-1.642,10.218,10.218,0,0,1,2.334-1.058,8.485,8.485,0,0,1,2.518-.383,4.7,4.7,0,0,1,4.267,2.1q1.349,2.1,1.351,6.584Z" transform="translate(-934.836 -391.342)"/><path class="a" d="M1017.3,410.93a6.4,6.4,0,0,1-2.407-.456,6.1,6.1,0,0,1-1.952-1.241,5.823,5.823,0,0,1-1.294-1.841,5.466,5.466,0,0,1-.476-2.262,4.311,4.311,0,0,1,.566-2.188,5.174,5.174,0,0,1,1.606-1.7,8.3,8.3,0,0,1,2.48-1.113,11.737,11.737,0,0,1,3.156-.4,20.528,20.528,0,0,1,3.318.273,15.582,15.582,0,0,1,3.028.785v-2.153a7.879,7.879,0,0,0-.438-2.681,5.813,5.813,0,0,0-1.259-2.08,5.72,5.72,0,0,0-1.969-1.331,6.6,6.6,0,0,0-2.535-.474,8.279,8.279,0,0,0-2.955.6,14.732,14.732,0,0,0-3.174,1.734l-.438-.584a12.057,12.057,0,0,1,6.567-2.481,7.747,7.747,0,0,1,2.863.511,5.978,5.978,0,0,1,2.189,1.46,6.6,6.6,0,0,1,1.386,2.3,8.783,8.783,0,0,1,.492,3.027v10.468c0,.487.194.729.584.729v.731a1.094,1.094,0,0,1-.51-.073,1.165,1.165,0,0,1-.585-.53,1.7,1.7,0,0,1-.218-.856v-1.751A8.578,8.578,0,0,1,1021.9,410,11.3,11.3,0,0,1,1017.3,410.93Zm0-.731a10.748,10.748,0,0,0,4.469-.911,6.736,6.736,0,0,0,3.008-2.445,2.576,2.576,0,0,0,.548-1.494v-3.758a17.449,17.449,0,0,0-6.346-1.131,11.73,11.73,0,0,0-2.9.33,7.092,7.092,0,0,0-2.225.948,4.6,4.6,0,0,0-1.441,1.477,3.658,3.658,0,0,0-.51,1.915,4.768,4.768,0,0,0,.42,1.989,5.092,5.092,0,0,0,1.148,1.622,5.155,5.155,0,0,0,1.715,1.076A5.779,5.779,0,0,0,1017.3,410.2Z" transform="translate(-936.836 -391.342)"/><path class="a" d="M1061.48,410.566h-.729V400.024q0-4.085-1.223-6.02a4.22,4.22,0,0,0-3.848-1.932,6.567,6.567,0,0,0-2.536.492,7.475,7.475,0,0,0-2.152,1.367,8.943,8.943,0,0,0-1.677,2.08,10.047,10.047,0,0,0-1.076,2.627v11.928h-.73V400.024q0-4.123-1.2-6.038a4.186,4.186,0,0,0-3.829-1.915,6.676,6.676,0,0,0-2.5.474,7.329,7.329,0,0,0-2.152,1.331,8.85,8.85,0,0,0-1.7,2.062A10.434,10.434,0,0,0,1035,398.6v11.965h-.73V391.634h.73v4.888a10.065,10.065,0,0,1,3.156-3.829,7.1,7.1,0,0,1,4.176-1.35,5.4,5.4,0,0,1,3.939,1.5,6.456,6.456,0,0,1,1.824,4.012q2.845-5.506,7.586-5.508a4.9,4.9,0,0,1,4.378,2.134q1.423,2.135,1.422,6.548Z" transform="translate(-938.266 -391.342)"/><path class="a" d="M1078.078,410.93a8.019,8.019,0,0,1-3.5-.785,9.286,9.286,0,0,1-2.863-2.115,10.223,10.223,0,0,1,.02-13.768,9.331,9.331,0,0,1,2.881-2.134,8.037,8.037,0,0,1,6.93,0,9.121,9.121,0,0,1,2.864,2.134,10.668,10.668,0,0,1,1.952,3.118,9.834,9.834,0,0,1,.729,3.774,10.234,10.234,0,0,1-2.645,6.876,9.277,9.277,0,0,1-2.863,2.115A8.01,8.01,0,0,1,1078.078,410.93Zm-8.281-9.7a9.464,9.464,0,0,0,2.426,6.327,8.314,8.314,0,0,0,2.609,1.934,7.39,7.39,0,0,0,3.209.71,7.254,7.254,0,0,0,3.192-.728,8.848,8.848,0,0,0,2.662-1.97,9.49,9.49,0,0,0,1.8-9.849,9.428,9.428,0,0,0-1.787-2.881,8.617,8.617,0,0,0-2.645-1.971,7.353,7.353,0,0,0-6.384,0,8.455,8.455,0,0,0-2.644,1.989,9.6,9.6,0,0,0-1.788,2.918A9.48,9.48,0,0,0,1069.8,401.228Z" transform="translate(-940.42 -391.342)"/><path class="a" d="M1102.4,392.384a7.477,7.477,0,0,0-4.649,1.75,8.59,8.59,0,0,0-2.718,4.487v11.965h-.731V391.653h.731v4.888a9.313,9.313,0,0,1,2.645-3.3,7.007,7.007,0,0,1,3.519-1.514c.244-.023.469-.041.675-.055s.383-.018.528-.018Z" transform="translate(-941.982 -391.361)"/></g></g></g></svg>