<svg xmlns="http://www.w3.org/2000/svg" width="160" height="160" viewBox="0 0 160 160"><defs><style>.a{fill:#3a7f0d;}.b{fill:#fff;}</style></defs><g transform="translate(-880 -296.902)"><circle class="a" cx="80" cy="80" r="80" transform="translate(880 296.902)"/><path class="b" d="M924.84,401.463c5.087,2.54,12.077,4.45,20.215,5.522a118.176,118.176,0,0,0,29.893,0c8.137-1.072,15.127-2.982,20.214-5.522,7.138-3.566,8.636-7.457,8.636-10.094a22.8,22.8,0,0,0-15.453-21.555,13.089,13.089,0,1,0-14.614,0,22.618,22.618,0,0,0-7.025,3.883,9.659,9.659,0,0,0-13.409,0,22.651,22.651,0,0,0-7.027-3.884,13.088,13.088,0,1,0-14.613,0,22.8,22.8,0,0,0-15.452,21.511c0,.015,0,.03,0,.045C916.2,394.006,917.7,397.9,924.84,401.463Zm22.157,2.3v-.422a13,13,0,0,1,26.009,0v.422a115.415,115.415,0,0,1-26.009,0Zm24.389-44.8a9.655,9.655,0,1,1,9.655,9.652A9.666,9.666,0,0,1,971.386,358.959Zm28.977,32.41c0,2.357-2.392,4.851-6.737,7.021a59.587,59.587,0,0,1-17.185,4.914,16.465,16.465,0,0,0-10.267-15.2,9.666,9.666,0,0,0,2.551-11.627,19.322,19.322,0,0,1,31.638,14.889ZM960,374.423a6.245,6.245,0,0,1,5.126,2.684h0A6.235,6.235,0,1,1,960,374.423Zm-30.693-15.464a9.654,9.654,0,1,1,9.653,9.652A9.665,9.665,0,0,1,929.308,358.959Zm9.653,13.087a19.229,19.229,0,0,1,12.316,4.434,9.67,9.67,0,0,0,2.552,11.627,16.462,16.462,0,0,0-10.266,15.2,59.592,59.592,0,0,1-17.188-4.914c-4.332-2.164-6.722-4.649-6.736-7v-.02A19.343,19.343,0,0,1,938.961,372.046Z"/></g></svg>